<svg xmlns="http://www.w3.org/2000/svg" width="1400" height="800" viewBox="0 0 1400 800">
<defs>
<marker id="arrow" markerWidth="12" markerHeight="12" refX="10" refY="6" orient="auto"><path d="M0,0 L12,6 L0,12 z" fill="#264653"/></marker>
<g id="starburst"><circle cx="0" cy="0" r="2" fill="#c76e2a"/><line x1="-14" y1="0" x2="14" y2="0" stroke="#c76e2a" stroke-width="2"/><line x1="0" y1="-14" x2="0" y2="14" stroke="#c76e2a" stroke-width="2"/><line x1="-10" y1="-10" x2="10" y2="10" stroke="#c76e2a" stroke-width="2"/><line x1="-10" y1="10" x2="10" y2="-10" stroke="#c76e2a" stroke-width="2"/></g>
</defs>
<rect x="0" y="0" width="1400" height="800" fill="#fbf7ef"/>
<text x="700.0" y="60" fill="#1f2a2e" font-family="Avenir, Futura, Helvetica, Arial, sans-serif" font-size="34" font-weight="800" text-anchor="middle">SwiftScreenplay ↔ SwiftData Import/Export</text>
<use href="#starburst" x="1280" y="80" />
<use href="#starburst" x="90" y="710" />
<rect x="150" y="120" width="260" height="90" rx="12" fill="#F4A261" stroke="#2A2A2A" stroke-width="2"/>
<text x="280.0" y="175" fill="#ffffff" font-family="Avenir, Futura, Helvetica, Arial, sans-serif" font-size="26" font-weight="800" text-anchor="middle">.fountain</text>
<rect x="570.0" y="120" width="260" height="90" rx="12" fill="#F4A261" stroke="#2A2A2A" stroke-width="2"/>
<text x="700.0" y="175" fill="#ffffff" font-family="Avenir, Futura, Helvetica, Arial, sans-serif" font-size="26" font-weight="800" text-anchor="middle">.highland</text>
<rect x="990" y="120" width="260" height="90" rx="12" fill="#F4A261" stroke="#2A2A2A" stroke-width="2"/>
<text x="1120.0" y="175" fill="#ffffff" font-family="Avenir, Futura, Helvetica, Arial, sans-serif" font-size="26" font-weight="800" text-anchor="middle">.fdx</text>
<rect id="swiftdata-core" x="440.0" y="360" width="520" height="160" rx="18" fill="#2A9D8F" stroke="#264653" stroke-width="3"/>
<text x="700.0" y="425" fill="#ffffff" font-family="Avenir, Futura, Helvetica, Arial, sans-serif" font-size="30" font-weight="900" text-anchor="middle">SwiftData</text>
<text x="700.0" y="465" fill="#e6fbf7" font-family="Avenir, Futura, Helvetica, Arial, sans-serif" font-size="20" font-weight="700" text-anchor="middle">(SwiftScreenplay Core Model)</text>
<line x1="280.0" y1="210" x2="570.0" y2="360" stroke="#264653" stroke-width="3" marker-end="url(#arrow)"/>
<text x="425.0" y="275.0" fill="#264653" font-family="Avenir, Futura, Helvetica, Arial, sans-serif" font-size="20" font-weight="700" text-anchor="middle">Import</text>
<line x1="700.0" y1="210" x2="700.0" y2="360" stroke="#264653" stroke-width="3" marker-end="url(#arrow)"/>
<text x="700.0" y="275.0" fill="#264653" font-family="Avenir, Futura, Helvetica, Arial, sans-serif" font-size="20" font-weight="700" text-anchor="middle">Import</text>
<line x1="1120.0" y1="210" x2="830.0" y2="360" stroke="#264653" stroke-width="3" marker-end="url(#arrow)"/>
<text x="975.0" y="275.0" fill="#264653" font-family="Avenir, Futura, Helvetica, Arial, sans-serif" font-size="20" font-weight="700" text-anchor="middle">Import</text>
<line x1="570.0" y1="520" x2="280.0" y2="350" stroke="#264653" stroke-width="3" stroke-dasharray="8,8" marker-end="url(#arrow)"/>
<text x="425.0" y="425.0" fill="#264653" font-family="Avenir, Futura, Helvetica, Arial, sans-serif" font-size="20" font-weight="700" text-anchor="middle">Export</text>
<line x1="700.0" y1="520" x2="700.0" y2="350" stroke="#264653" stroke-width="3" stroke-dasharray="8,8" marker-end="url(#arrow)"/>
<text x="700.0" y="425.0" fill="#264653" font-family="Avenir, Futura, Helvetica, Arial, sans-serif" font-size="20" font-weight="700" text-anchor="middle">Export</text>
<line x1="830.0" y1="520" x2="1120.0" y2="350" stroke="#264653" stroke-width="3" stroke-dasharray="8,8" marker-end="url(#arrow)"/>
<text x="975.0" y="425.0" fill="#264653" font-family="Avenir, Futura, Helvetica, Arial, sans-serif" font-size="20" font-weight="700" text-anchor="middle">Export</text>
<line x1="280.0" y1="350" x2="280.0" y2="210" stroke="#264653" stroke-width="3" marker-end="url(#arrow)"/>
<line x1="700.0" y1="350" x2="700.0" y2="210" stroke="#264653" stroke-width="3" marker-end="url(#arrow)"/>
<line x1="1120.0" y1="350" x2="1120.0" y2="210" stroke="#264653" stroke-width="3" marker-end="url(#arrow)"/>
</svg>